<svg width="720" height="560" viewBox="0 0 720 560" fill="none" xmlns="http://www.w3.org/2000/svg">
  <rect width="720" height="560" rx="32" fill="url(#bg)" />
  <circle cx="112" cy="106" r="56" fill="url(#glowA)" opacity="0.65" />
  <circle cx="590" cy="124" r="82" fill="url(#glowB)" opacity="0.55" />
  <circle cx="608" cy="442" r="98" fill="url(#glowC)" opacity="0.5" />

  <g opacity="0.18">
    <path d="M83 476C149.667 420 216.333 392 283 392C349.667 392 416.333 420 483 476" stroke="white" stroke-width="2"/>
    <path d="M166 514C219.333 468.667 272.667 446 326 446C379.333 446 432.667 468.667 486 514" stroke="white" stroke-width="2"/>
    <path d="M458 84L648 84" stroke="white" stroke-width="2"/>
    <path d="M484 112L648 112" stroke="white" stroke-width="2"/>
  </g>

  <g filter="url(#shadow)">
    <rect x="162" y="108" width="396" height="270" rx="28" fill="url(#panel)" />
    <rect x="182" y="132" width="140" height="16" rx="8" fill="white" fill-opacity="0.9"/>
    <rect x="182" y="158" width="88" height="12" rx="6" fill="white" fill-opacity="0.45"/>
    <rect x="182" y="192" width="356" height="130" rx="22" fill="#D7F5EC" fill-opacity="0.2"/>
    <path d="M360 188L444 228V288C444 333.178 407.346 369 362 369C316.654 369 280 333.178 280 288V228L360 188Z" fill="url(#shield)"/>
    <path d="M330 280L352 302L392 260" stroke="white" stroke-width="16" stroke-linecap="round" stroke-linejoin="round"/>
    <rect x="196" y="340" width="110" height="12" rx="6" fill="white" fill-opacity="0.75"/>
    <rect x="196" y="362" width="78" height="10" rx="5" fill="white" fill-opacity="0.35"/>
    <rect x="418" y="340" width="104" height="12" rx="6" fill="white" fill-opacity="0.6"/>
    <rect x="418" y="362" width="70" height="10" rx="5" fill="white" fill-opacity="0.3"/>
  </g>

  <g filter="url(#cardShadow)">
    <rect x="88" y="174" width="130" height="86" rx="20" fill="white" fill-opacity="0.95"/>
    <rect x="110" y="196" width="46" height="46" rx="14" fill="#0F766E" fill-opacity="0.13"/>
    <path d="M132.5 212L145 218V229.5C145 238.06 139.403 245.673 132.5 248C125.597 245.673 120 238.06 120 229.5V218L132.5 212Z" fill="#0F766E"/>
    <rect x="168" y="200" width="30" height="10" rx="5" fill="#0F172A" fill-opacity="0.82"/>
    <rect x="168" y="218" width="20" height="8" rx="4" fill="#475569" fill-opacity="0.55"/>
  </g>

  <g filter="url(#cardShadow)">
    <rect x="510" y="292" width="142" height="96" rx="22" fill="white" fill-opacity="0.96"/>
    <rect x="532" y="318" width="88" height="12" rx="6" fill="#0F172A" fill-opacity="0.82"/>
    <rect x="532" y="340" width="64" height="10" rx="5" fill="#475569" fill-opacity="0.5"/>
    <rect x="532" y="360" width="98" height="10" rx="5" fill="#14B8A6" fill-opacity="0.22"/>
  </g>

  <defs>
    <linearGradient id="bg" x1="66" y1="38" x2="644" y2="534" gradientUnits="userSpaceOnUse">
      <stop stop-color="#071A2E"/>
      <stop offset="0.52" stop-color="#0D355A"/>
      <stop offset="1" stop-color="#0F766E"/>
    </linearGradient>
    <radialGradient id="glowA" cx="0" cy="0" r="1" gradientUnits="userSpaceOnUse" gradientTransform="translate(112 106) rotate(90) scale(56)">
      <stop stop-color="#F59E0B"/>
      <stop offset="1" stop-color="#F59E0B" stop-opacity="0"/>
    </radialGradient>
    <radialGradient id="glowB" cx="0" cy="0" r="1" gradientUnits="userSpaceOnUse" gradientTransform="translate(590 124) rotate(90) scale(82)">
      <stop stop-color="#38BDF8"/>
      <stop offset="1" stop-color="#38BDF8" stop-opacity="0"/>
    </radialGradient>
    <radialGradient id="glowC" cx="0" cy="0" r="1" gradientUnits="userSpaceOnUse" gradientTransform="translate(608 442) rotate(90) scale(98)">
      <stop stop-color="#14B8A6"/>
      <stop offset="1" stop-color="#14B8A6" stop-opacity="0"/>
    </radialGradient>
    <linearGradient id="panel" x1="180" y1="108" x2="514" y2="378" gradientUnits="userSpaceOnUse">
      <stop stop-color="white" stop-opacity="0.26"/>
      <stop offset="1" stop-color="white" stop-opacity="0.08"/>
    </linearGradient>
    <linearGradient id="shield" x1="280" y1="188" x2="444" y2="369" gradientUnits="userSpaceOnUse">
      <stop stop-color="#2DD4BF"/>
      <stop offset="1" stop-color="#0EA5E9"/>
    </linearGradient>
    <filter id="shadow" x="126" y="84" width="468" height="330" filterUnits="userSpaceOnUse" color-interpolation-filters="sRGB">
      <feFlood flood-opacity="0" result="BackgroundImageFix"/>
      <feColorMatrix in="SourceAlpha" type="matrix" values="0 0 0 0 0 0 0 0 0 0 0 0 0 0 0 0 0 0 127 0" result="hardAlpha"/>
      <feOffset dy="6"/>
      <feGaussianBlur stdDeviation="18"/>
      <feColorMatrix type="matrix" values="0 0 0 0 0.0196078 0 0 0 0 0.0823529 0 0 0 0 0.160784 0 0 0 0.18 0"/>
      <feBlend mode="normal" in2="BackgroundImageFix" result="effect1_dropShadow_hero"/>
      <feBlend mode="normal" in="SourceGraphic" in2="effect1_dropShadow_hero" result="shape"/>
    </filter>
    <filter id="cardShadow" x="64" y="154" width="612" height="258" filterUnits="userSpaceOnUse" color-interpolation-filters="sRGB">
      <feFlood flood-opacity="0" result="BackgroundImageFix"/>
      <feColorMatrix in="SourceAlpha" type="matrix" values="0 0 0 0 0 0 0 0 0 0 0 0 0 0 0 0 0 0 127 0" result="hardAlpha"/>
      <feOffset dy="8"/>
      <feGaussianBlur stdDeviation="12"/>
      <feColorMatrix type="matrix" values="0 0 0 0 0.0196078 0 0 0 0 0.0823529 0 0 0 0 0.160784 0 0 0 0.16 0"/>
      <feBlend mode="normal" in2="BackgroundImageFix" result="effect1_dropShadow_card"/>
      <feBlend mode="normal" in="SourceGraphic" in2="effect1_dropShadow_card" result="shape"/>
    </filter>
  </defs>
</svg>
